REM DIRINDEX 1\5,1\2\6,1\2\7,1\3\8,1\3\9,1\3\10,1\3\11,1\4\12,1\4\13,1\4\14
REM DIRNAME folder01,folder02,folder03,folder04,folder05,folder06,folder07,folder08,folder09,folder10,folder11,folder12,folder13,folder14
TITLE ""
FILE "5Q_j_570-577.mp3" MP3
  TRACK 01 AUDIO
    TITLE "5:cjc043_0286"
    INDEX 01 00:00:00
  TRACK 02 AUDIO
    TITLE "0:"
    INDEX 01 00:03:59
  TRACK 03 AUDIO
    TITLE "8:cjc043_0287"
    INDEX 01 00:04:33
  TRACK 04 AUDIO
    TITLE "0:"
    INDEX 01 00:05:50
  TRACK 05 AUDIO
    TITLE "9:cjc043_0288"
    INDEX 01 00:06:33
  TRACK 06 AUDIO
    TITLE "0:"
    INDEX 01 00:09:59
  TRACK 07 AUDIO
    TITLE "10:cjc043_0289"
    INDEX 01 00:10:41
  TRACK 08 AUDIO
    TITLE "0:"
    INDEX 01 00:12:63
  TRACK 09 AUDIO
    TITLE "11:cjc043_0290"
    INDEX 01 00:13:41
  TRACK 10 AUDIO
    TITLE "0:"
    INDEX 01 00:15:27
  TRACK 11 AUDIO
    TITLE "8:cjc043_0291"
    INDEX 01 00:16:04
  TRACK 12 AUDIO
    TITLE "0:"
    INDEX 01 00:17:53
  TRACK 13 AUDIO
    TITLE "9:cjc043_0292"
    INDEX 01 00:18:31
  TRACK 14 AUDIO
    TITLE "0:"
    INDEX 01 00:22:27
  TRACK 15 AUDIO
    TITLE "10:cjc043_0293"
    INDEX 01 00:23:06
  TRACK 16 AUDIO
    TITLE "0:"
    INDEX 01 00:27:63
  TRACK 17 AUDIO
    TITLE "11:cjc043_0294"
    INDEX 01 00:28:43
  TRACK 18 AUDIO
    TITLE "0:"
    INDEX 01 00:32:07
  TRACK 19 AUDIO
    TITLE "8:cjc043_0295"
    INDEX 01 00:32:64
  TRACK 20 AUDIO
    TITLE "0:"
    INDEX 01 00:34:26
  TRACK 21 AUDIO
    TITLE "9:cjc043_0296"
    INDEX 01 00:35:08
  TRACK 22 AUDIO
    TITLE "0:"
    INDEX 01 00:36:13
  TRACK 23 AUDIO
    TITLE "10:cjc043_0297"
    INDEX 01 00:36:64
  TRACK 24 AUDIO
    TITLE "0:"
    INDEX 01 00:39:00
  TRACK 25 AUDIO
    TITLE "11:cjc043_0298"
    INDEX 01 00:39:51
  TRACK 26 AUDIO
    TITLE "0:"
    INDEX 01 00:41:55
  TRACK 27 AUDIO
    TITLE "8:cjc043_0299"
    INDEX 01 00:42:31
  TRACK 28 AUDIO
    TITLE "0:"
    INDEX 01 00:43:54
  TRACK 29 AUDIO
    TITLE "9:cjc043_0300"
    INDEX 01 00:44:36
  TRACK 30 AUDIO
    TITLE "0:"
    INDEX 01 00:45:57
  TRACK 31 AUDIO
    TITLE "10:cjc043_0301"
    INDEX 01 00:46:39
  TRACK 32 AUDIO
    TITLE "0:"
    INDEX 01 00:48:44
  TRACK 33 AUDIO
    TITLE "11:cjc043_0302"
    INDEX 01 00:49:23
  TRACK 34 AUDIO
    TITLE "0:"
    INDEX 01 00:50:54
  TRACK 35 AUDIO
    TITLE "8:cjc043_0303"
    INDEX 01 00:51:34
  TRACK 36 AUDIO
    TITLE "0:"
    INDEX 01 00:52:39
  TRACK 37 AUDIO
    TITLE "9:cjc043_0304"
    INDEX 01 00:53:23
  TRACK 38 AUDIO
    TITLE "0:"
    INDEX 01 00:55:26
  TRACK 39 AUDIO
    TITLE "10:cjc043_0305"
    INDEX 01 00:56:04
  TRACK 40 AUDIO
    TITLE "0:"
    INDEX 01 00:59:08
  TRACK 41 AUDIO
    TITLE "11:cjc043_0306"
    INDEX 01 00:59:61
  TRACK 42 AUDIO
    TITLE "0:"
    INDEX 01 01:02:42
  TRACK 43 AUDIO
    TITLE "8:cjc043_0307"
    INDEX 01 01:03:31
  TRACK 44 AUDIO
    TITLE "0:"
    INDEX 01 01:04:60
  TRACK 45 AUDIO
    TITLE "9:cjc043_0308"
    INDEX 01 01:05:44
  TRACK 46 AUDIO
    TITLE "0:"
    INDEX 01 01:07:70
  TRACK 47 AUDIO
    TITLE "10:cjc043_0309"
    INDEX 01 01:08:46
  TRACK 48 AUDIO
    TITLE "0:"
    INDEX 01 01:13:12
  TRACK 49 AUDIO
    TITLE "11:cjc043_0310"
    INDEX 01 01:13:63
  TRACK 50 AUDIO
    TITLE "0:"
    INDEX 01 01:17:41
  TRACK 51 AUDIO
    TITLE "8:cjc043_0311"
    INDEX 01 01:18:15
  TRACK 52 AUDIO
    TITLE "0:"
    INDEX 01 01:19:42
  TRACK 53 AUDIO
    TITLE "9:cjc043_0312"
    INDEX 01 01:20:18
  TRACK 54 AUDIO
    TITLE "0:"
    INDEX 01 01:21:72
  TRACK 55 AUDIO
    TITLE "10:cjc043_0313"
    INDEX 01 01:22:46
  TRACK 56 AUDIO
    TITLE "0:"
    INDEX 01 01:25:39
  TRACK 57 AUDIO
    TITLE "11:cjc043_0314"
    INDEX 01 01:26:17
  TRACK 58 AUDIO
    TITLE "0:"
    INDEX 01 01:28:63
  TRACK 59 AUDIO
    TITLE "8:cjc043_0315"
    INDEX 01 01:29:41
  TRACK 60 AUDIO
    TITLE "0:"
    INDEX 01 01:30:58
  TRACK 61 AUDIO
    TITLE "9:cjc043_0316"
    INDEX 01 01:31:39
  TRACK 62 AUDIO
    TITLE "0:"
    INDEX 01 01:32:37
  TRACK 63 AUDIO
    TITLE "10:cjc043_0317"
    INDEX 01 01:33:15
  TRACK 64 AUDIO
    TITLE "0:"
    INDEX 01 01:36:62
  TRACK 65 AUDIO
    TITLE "11:cjc043_0318"
    INDEX 01 01:37:42
  TRACK 66 AUDIO
    TITLE "0:"
    INDEX 01 01:40:44
